<mxfile host="Electron" agent="Mozilla/5.0 (X11; Linux x86_64) AppleWebKit/537.36 (KHTML, like Gecko) draw.io/26.0.3 Chrome/130.0.6723.137 Electron/33.2.1 Safari/537.36" version="26.0.3">
  <diagram name="Page-1" id="getIXR0-GvhuovikzK7o">
    <mxGraphModel dx="1185" dy="687" grid="1" gridSize="10" guides="1" tooltips="1" connect="1" arrows="1" fold="1" page="1" pageScale="1" pageWidth="827" pageHeight="1169" math="0" shadow="0">
      <root>
        <mxCell id="0" />
        <mxCell id="1" parent="0" />
        <mxCell id="9EQwz8rcWqRvRYYkNmlV-1" value="Alumet core&lt;div&gt;(lib)&lt;/div&gt;" style="rounded=0;whiteSpace=wrap;html=1;fillColor=#ffe6cc;strokeColor=#d79b00;" parent="1" vertex="1">
          <mxGeometry x="260" y="270" width="90" height="45" as="geometry" />
        </mxCell>
        <mxCell id="9EQwz8rcWqRvRYYkNmlV-6" style="edgeStyle=orthogonalEdgeStyle;rounded=0;orthogonalLoop=1;jettySize=auto;html=1;exitX=0.5;exitY=0;exitDx=0;exitDy=0;entryX=0.5;entryY=1;entryDx=0;entryDy=0;" parent="1" source="9EQwz8rcWqRvRYYkNmlV-2" target="9EQwz8rcWqRvRYYkNmlV-1" edge="1">
          <mxGeometry relative="1" as="geometry" />
        </mxCell>
        <mxCell id="t00TOznm3LLafYjLYWfJ-6" value="depends on" style="edgeLabel;html=1;align=center;verticalAlign=middle;resizable=0;points=[];" parent="9EQwz8rcWqRvRYYkNmlV-6" vertex="1" connectable="0">
          <mxGeometry x="-0.0148" relative="1" as="geometry">
            <mxPoint as="offset" />
          </mxGeometry>
        </mxCell>
        <mxCell id="9EQwz8rcWqRvRYYkNmlV-2" value="Alumet agent&lt;div&gt;(app)&lt;/div&gt;" style="rounded=0;whiteSpace=wrap;html=1;fillColor=#f8cecc;strokeColor=#b85450;" parent="1" vertex="1">
          <mxGeometry x="260" y="360" width="90" height="45" as="geometry" />
        </mxCell>
        <mxCell id="t00TOznm3LLafYjLYWfJ-2" style="rounded=0;orthogonalLoop=1;jettySize=auto;html=1;exitX=0;exitY=0.5;exitDx=0;exitDy=0;" parent="1" source="9EQwz8rcWqRvRYYkNmlV-3" edge="1">
          <mxGeometry relative="1" as="geometry">
            <mxPoint x="347" y="285" as="targetPoint" />
          </mxGeometry>
        </mxCell>
        <mxCell id="9EQwz8rcWqRvRYYkNmlV-3" value="Alumet plugin A (lib)" style="rounded=0;whiteSpace=wrap;html=1;fillColor=#CCFFCC;strokeColor=#82b366;" parent="1" vertex="1">
          <mxGeometry x="430" y="270" width="120" height="30" as="geometry" />
        </mxCell>
        <mxCell id="t00TOznm3LLafYjLYWfJ-3" style="rounded=0;orthogonalLoop=1;jettySize=auto;html=1;exitX=0;exitY=0.5;exitDx=0;exitDy=0;entryX=1;entryY=0.75;entryDx=0;entryDy=0;" parent="1" source="9EQwz8rcWqRvRYYkNmlV-7" target="9EQwz8rcWqRvRYYkNmlV-1" edge="1">
          <mxGeometry relative="1" as="geometry" />
        </mxCell>
        <mxCell id="9EQwz8rcWqRvRYYkNmlV-7" value="Alumet plugin B (lib)" style="rounded=0;whiteSpace=wrap;html=1;fillColor=#d5e8d4;strokeColor=#82b366;" parent="1" vertex="1">
          <mxGeometry x="390" y="320" width="120" height="30" as="geometry" />
        </mxCell>
        <mxCell id="t00TOznm3LLafYjLYWfJ-1" style="edgeStyle=orthogonalEdgeStyle;rounded=0;orthogonalLoop=1;jettySize=auto;html=1;entryX=0.5;entryY=1;entryDx=0;entryDy=0;" parent="1" source="9EQwz8rcWqRvRYYkNmlV-2" target="9EQwz8rcWqRvRYYkNmlV-7" edge="1">
          <mxGeometry relative="1" as="geometry">
            <mxPoint x="420" y="450" as="sourcePoint" />
            <mxPoint x="410" y="380" as="targetPoint" />
            <Array as="points">
              <mxPoint x="450" y="370" />
            </Array>
          </mxGeometry>
        </mxCell>
        <mxCell id="t00TOznm3LLafYjLYWfJ-5" style="edgeStyle=orthogonalEdgeStyle;rounded=0;orthogonalLoop=1;jettySize=auto;html=1;exitX=1;exitY=0.75;exitDx=0;exitDy=0;entryX=0.842;entryY=0.989;entryDx=0;entryDy=0;entryPerimeter=0;" parent="1" source="9EQwz8rcWqRvRYYkNmlV-2" target="9EQwz8rcWqRvRYYkNmlV-3" edge="1">
          <mxGeometry relative="1" as="geometry" />
        </mxCell>
      </root>
    </mxGraphModel>
  </diagram>
</mxfile>
